PathFileType	4	(X/Y/Z)	C:\Users\Basilio\Documents\Thesis Gigler\squatting_fais\c3dfiles\040\SLS_pre_front1\markers_experimental.trc
DataRate	CameraRate	NumFrames	NumMarkers	Units	OrigDataRate	OrigDataStartFrame	OrigNumFrames
200.000000	200.000000	4	62	mm	200.000000	846	1129
Frame#	Time	FHD			LBHD			RBHD			C7			T10			CLAV			LSHO			LUUPA			LMUPA			LDUPA			LLEP			LMEP			LRAD			LUL			LRFIN			RSHO			RUPA1			RMUPA			RDUPA			RLEP			RMEP			RRAD			RUL			RUFIN			LASI			RASI			USACR			LSACR			RSACR			LTHI1			LTHI2			LTHI3			LTHI4			LLFC			LMFC			LTIB1			LTIB2			LTIB3			LTIB4			LLMAL			LMMAL			LHEE			LMT1			LMT2			LMT5			RTHI			RTHI2			RTHI3			RTHI4			RLFC			RMFC			RTIB1			RTIB2			RTIB3			RTIB4			RLMAL			RMMAL			RHEE			RMT1			RMT2			RMT5			*61			
		X1	Y1	Z1	X2	Y2	Z2	X3	Y3	Z3	X4	Y4	Z4	X5	Y5	Z5	X6	Y6	Z6	X7	Y7	Z7	X8	Y8	Z8	X9	Y9	Z9	X10	Y10	Z10	X11	Y11	Z11	X12	Y12	Z12	X13	Y13	Z13	X14	Y14	Z14	X15	Y15	Z15	X16	Y16	Z16	X17	Y17	Z17	X18	Y18	Z18	X19	Y19	Z19	X20	Y20	Z20	X21	Y21	Z21	X22	Y22	Z22	X23	Y23	Z23	X24	Y24	Z24	X25	Y25	Z25	X26	Y26	Z26	X27	Y27	Z27	X28	Y28	Z28	X29	Y29	Z29	X30	Y30	Z30	X31	Y31	Z31	X32	Y32	Z32	X33	Y33	Z33	X34	Y34	Z34	X35	Y35	Z35	X36	Y36	Z36	X37	Y37	Z37	X38	Y38	Z38	X39	Y39	Z39	X40	Y40	Z40	X41	Y41	Z41	X42	Y42	Z42	X43	Y43	Z43	X44	Y44	Z44	X45	Y45	Z45	X46	Y46	Z46	X47	Y47	Z47	X48	Y48	Z48	X49	Y49	Z49	X50	Y50	Z50	X51	Y51	Z51	X52	Y52	Z52	X53	Y53	Z53	X54	Y54	Z54	X55	Y55	Z55	X56	Y56	Z56	X57	Y57	Z57	X58	Y58	Z58	X59	Y59	Z59	X60	Y60	Z60	X61	Y61	Z61	X62	Y62	Z62	

847	4.23	-256.4241943359376	1788.188232421875	-1128.70654296875	-375.4117431640626	1731.179809570313	-1177.910034179688	-433.7227783203126	1688.438720703125	-1050.107666015625	-424.3135375976564	1562.086181640625	-1099.272338867188	-418.1594238281251	1241.224365234375	-1094.7607421875	-286.9124450683594	1514.704223632813	-1102.483642578125	-349.5885009765626	1563.59228515625	-1245.8515625	-184.282455444336	1518.9873046875	-1316.794189453125	-155.6206359863282	1535.778564453125	-1279.634887695313	-115.5721664428711	1509.561767578125	-1316.8388671875	-57.19191741943361	1485.381713867188	-1314.372192382813	-67.96618652343751	1431.3525390625	-1278.75341796875	198.3670654296876	1509.513793945313	-1176.959350585938	215.8847351074219	1522.993408203125	-1250.948364257813	278.9798889160157	1527.34912109375	-1152.826293945313	-328.3880615234376	1547.544799804688	-957.794128417969	-168.5743255615235	1483.518798828125	-886.0720214843752	-140.4540557861328	1508.95361328125	-916.2083129882815	-99.17884063720706	1471.93798828125	-890.231140136719	-38.31073379516602	1465.693115234375	-902.1177368164065	-46.94271087646485	1410.920166015625	-952.454284667969	213.6177215576172	1528.54345703125	-1045.462646484375	229.0632324218751	1514.811279296875	-971.288024902344	311.4892272949219	1530.421875	-1049.522338867188	-219.8742218017579	1078.692993164063	-1192.413818359375	-224.8493194580079	1099.003295898438	-964.084411621094	-410.2268066406251	1108.387084960938	-1075.861083984375	-412.5818786621095	1077.040283203125	-1100.271362304688	-414.3737182617189	1080.653686523438	-1043.946411132813	-325.8135681152344	808.8099365234377	-1217.363403320313	-281.7264099121094	736.3807373046876	-1222.803833007813	-237.3551635742188	743.8292236328126	-1232.03271484375	-297.8386840820313	682.4960327148439	-1203.902954101563	-267.2591552734376	551.7960815429689	-1189.114868164063	-255.7221374511719	542.4981689453126	-1057.566040039063	-245.9727020263672	325.4353637695313	-1128.277587890625	-322.2664489746094	295.1086425781251	-1159.31396484375	-280.6918334960938	283.2965393066407	-1149.21435546875	-278.1413574218751	206.4078521728516	-1105.764038085938	-354.7527160644532	127.1999816894532	-1105.896728515625	-315.7387695312501	142.629150390625	-1028.347900390625	-414.0278320312501	97.89593505859378	-1048.740356445313	-199.8830108642579	56.24967193603517	-1049.769897460938	-204.8324127197266	50.4675979614258	-1096.137939453125	-261.9755554199219	37.36682128906251	-1137.46484375	-211.5891571044922	829.494079589844	-879.5535278320315	-162.2556304931641	784.398620605469	-886.9199829101565	-132.3605041503907	796.4605102539065	-895.893249511719	-169.431884765625	702.8121948242189	-900.7373046875002	-122.450927734375	576.3152465820314	-916.066345214844	-113.270263671875	576.8099975585939	-1050.636962890625	-4.083871364593507	425.914276123047	-940.294860839844	-40.47614288330079	324.5827636718751	-923.6704101562502	2.588102817535401	338.9288635253907	-930.609802246094	39.38593292236329	306.6570434570313	-962.8923339843752	36.7718849182129	179.6003875732422	-948.6868286132815	54.70358276367189	205.3682861328126	-1033.119750976563	1.095820188522339	114.9187469482422	-1010.4345703125	210.1660308837891	189.9756927490235	-1003.284118652344	203.0101928710938	189.1460876464844	-963.498718261719	171.0063934326172	147.0349731445313	-917.0412597656252	nan	nan	nan	
848	4.235	-256.4333801269532	1787.623168945313	-1128.894897460938	-375.6502380371094	1730.765380859375	-1177.802001953125	-433.9891052246095	1688.18212890625	-1050.010864257813	-424.7978820800782	1561.69140625	-1099.21484375	-418.0879821777345	1240.7666015625	-1094.655029296875	-287.2859497070313	1514.363159179688	-1102.43017578125	-350.0330810546876	1563.195922851563	-1245.703125	-184.6935119628907	1518.752197265625	-1316.537963867188	-156.1363677978516	1535.564331054688	-1279.315551757813	-115.9265899658203	1509.469970703125	-1316.560424804688	-57.57157516479494	1485.260009765625	-1314.141845703125	-67.9838104248047	1430.825439453125	-1278.515014648438	198.1409912109376	1509.511108398438	-1176.689697265625	215.3774871826172	1523.000122070313	-1250.469116210938	278.7507934570313	1527.058837890625	-1152.571655273438	-328.9594421386719	1547.013549804688	-957.5894775390627	-169.0862274169922	1482.91162109375	-885.990905761719	-140.8047637939453	1508.551025390625	-915.9699707031252	-99.3650817871094	1471.927734375	-890.1945800781252	-38.73645019531251	1466.047607421875	-902.8348388671877	-47.27001571655274	1410.713745117188	-952.315124511719	213.2690124511719	1528.506103515625	-1045.07861328125	228.4502410888672	1514.823608398438	-970.7039184570315	310.9428710937501	1530.522705078125	-1049.032836914063	-219.5875091552735	1078.61376953125	-1192.773193359375	-224.3177032470704	1098.566040039063	-964.213806152344	-409.8424682617189	1108.002685546875	-1075.711547851563	-412.2313842773439	1076.692016601563	-1100.19921875	-413.8683471679689	1080.155151367188	-1043.873168945313	-325.7107238769532	808.7650146484377	-1217.441650390625	-281.8372497558594	736.3007812500001	-1222.904296875	-237.4601440429688	743.7421875000001	-1232.274291992188	-297.9248657226563	682.4509887695314	-1204.048950195313	-267.4202270507813	551.7019042968751	-1189.181274414063	-255.7290344238282	542.4250488281251	-1057.7275390625	-246.1445617675782	325.4611816406251	-1128.396606445313	-322.4891357421876	295.0332641601563	-1159.297729492188	-280.7779846191407	283.3703002929688	-1149.25390625	-278.0960693359376	206.2750549316407	-1105.678588867188	-354.5784606933594	127.073600769043	-1105.723876953125	-315.9128112792969	142.652572631836	-1028.2939453125	-414.0396118164064	97.82047271728518	-1048.712646484375	-199.8801879882813	56.29459381103517	-1049.759887695313	-204.9194335937501	50.47971343994142	-1096.073364257813	-261.9497070312501	37.3961296081543	-1137.448120117188	-211.3795318603516	829.084899902344	-879.8590087890627	-161.9731140136719	784.871520996094	-887.034851074219	-131.936752319336	795.278503417969	-895.829772949219	-169.436508178711	702.1749267578126	-900.7210083007815	-122.5018692016602	575.8490600585939	-915.9917602539065	-113.35888671875	576.1347045898439	-1050.395141601563	-4.104424476623536	425.2576293945314	-940.399108886719	-40.6410255432129	324.2017517089844	-923.6268310546877	2.971784830093384	338.8939514160157	-929.759216308594	38.96260070800782	305.6494445800782	-962.9397583007815	36.40903854370118	178.9966888427735	-948.3901977539065	54.09184646606447	204.2921752929688	-1032.907836914063	-0.1997697800397873	114.8267440795899	-1009.965148925781	209.9277038574219	189.065902709961	-1003.102966308594	202.4803924560547	188.0340881347657	-962.7601318359377	170.4541473388672	146.5098724365235	-916.596374511719	nan	nan	nan	
849	4.24	-256.6269531250001	1787.1279296875	-1128.886596679688	-375.9351806640626	1730.492553710938	-1177.830444335938	-434.1836242675782	1687.993896484375	-1049.948486328125	-425.219207763672	1561.101440429688	-1099.109252929688	-418.1076049804689	1240.350952148438	-1094.495849609375	-287.4774169921876	1513.975830078125	-1102.405517578125	-350.3060302734376	1562.808349609375	-1245.612548828125	-185.1064758300782	1518.364379882813	-1316.3603515625	-156.5751342773438	1535.263916015625	-1279.129760742188	-116.3855285644532	1509.227294921875	-1316.394287109375	-57.96202850341798	1485.011352539063	-1313.902465820313	-68.03553771972658	1430.534301757813	-1278.438842773438	197.9356384277344	1509.470703125	-1176.281372070313	214.9062500000001	1523.118041992188	-1250.144897460938	278.3533935546876	1526.821655273438	-1152.18603515625	-329.3984680175782	1546.329345703125	-957.3531494140627	-169.2701416015625	1482.274658203125	-885.7679443359377	-141.125961303711	1508.281127929688	-915.8803710937502	-100.9389572143555	1470.933715820313	-891.1607666015627	-38.99029922485352	1465.82763671875	-902.7078247070315	-47.62799072265626	1410.444213867188	-952.1911621093752	212.9579772949219	1528.512084960938	-1044.869506835938	227.8965148925782	1514.96484375	-970.4627075195315	310.7695007324219	1530.399658203125	-1048.730346679688	-219.3242340087891	1078.451538085938	-1193.124877929688	-223.7744903564454	1098.17919921875	-964.5061035156252	-409.5663452148439	1107.422729492188	-1075.638061523438	-411.9290161132814	1076.3857421875	-1100.233032226563	-413.5716552734376	1079.704711914063	-1043.750854492188	-325.7435607910157	808.7695312500002	-1217.565063476563	-281.8006896972657	736.2048339843751	-1223.154174804688	-237.455551147461	743.6693725585939	-1232.445678710938	-298.0400085449219	682.3884887695314	-1204.15869140625	-267.5771179199219	551.6828613281251	-1189.2744140625	-255.766342163086	542.3500366210939	-1057.797729492188	-246.2729492187501	326.0611877441407	-1128.282592773438	-322.5034484863282	294.9293212890626	-1159.334228515625	-280.8899536132813	283.2363586425782	-1149.181030273438	-278.2590942382813	206.4511260986329	-1105.749755859375	-354.7024536132813	127.0090866088867	-1105.643310546875	-316.0387573242188	142.4906463623047	-1028.123168945313	-414.0462646484376	97.81521606445315	-1048.637939453125	-199.8443908691407	56.25106430053712	-1049.739013671875	-204.9217987060547	50.47702026367189	-1096.049926757813	-261.9763183593751	37.40102767944337	-1137.414428710938	-211.2019042968751	828.288269042969	-879.9473876953127	-161.6585388183594	784.6071777343752	-887.1875610351565	-131.6378326416016	795.4511718750002	-896.3594970703127	-169.2676696777344	701.8007202148439	-900.7219238281252	-122.5369033813477	575.4792480468751	-915.9685668945315	-113.6932220458985	575.4002075195314	-1050.327758789063	-4.67361879348755	424.3718566894532	-940.3692016601565	-40.74863052368165	323.3596801757813	-923.3699951171877	2.404915571212769	338.1192321777344	-929.6909179687502	38.60063552856446	304.8663635253907	-962.680603027344	35.7988510131836	178.0668487548828	-948.0214843750002	53.79595947265626	203.5885009765626	-1032.575439453125	-0.8057404756546023	114.1615753173828	-1009.640441894531	209.1577301025391	188.1316375732422	-1002.840087890625	202.2221832275391	187.0664825439453	-962.672058105469	169.6460571289063	145.6494903564453	-916.2378540039065	nan	nan	nan	
850	4.245	-256.9597167968751	1786.62109375	-1129.000122070313	-376.1314697265626	1730.182373046875	-1177.784912109375	-434.3294067382814	1687.857788085938	-1049.910522460938	-425.8468627929689	1560.88232421875	-1098.982055664063	-418.128631591797	1239.960205078125	-1094.40380859375	-287.7769470214844	1513.568481445313	-1102.318969726563	-350.7611999511719	1562.31005859375	-1245.509887695313	-185.4845123291016	1518.097045898438	-1316.207397460938	-156.9366912841797	1535.064575195313	-1278.873413085938	-116.6986236572266	1509.023803710938	-1316.20703125	-58.36444473266603	1484.786499023438	-1313.65673828125	-68.26577758789064	1430.404418945313	-1278.245483398438	197.1259460449219	1509.365234375	-1175.880981445313	214.4774169921876	1523.210815429688	-1249.8349609375	277.6914672851563	1526.589477539063	-1151.627807617188	-329.8294067382813	1545.796752929688	-957.2007446289065	-169.9674987792969	1481.89892578125	-885.2879638671877	-141.563232421875	1507.783325195313	-915.6036376953127	-100.2031326293946	1471.453491210938	-889.725524902344	-39.75297546386719	1465.6181640625	-902.254089355469	-47.91233825683594	1409.978637695313	-951.968933105469	212.5643157958985	1528.427856445313	-1044.52587890625	227.7102661132813	1515.135864257813	-970.0249023437502	310.4689636230469	1530.3671875	-1048.378051757813	-219.1170806884766	1078.381713867188	-1193.519409179688	-223.3692321777344	1097.82568359375	-964.6970214843752	-409.2425231933595	1107.124145507813	-1075.637939453125	-411.6223449707032	1075.967407226563	-1100.233520507813	-413.3344726562501	1079.20068359375	-1043.846069335938	-325.7004089355469	808.7764282226565	-1217.703002929688	-281.6784667968751	736.0615234375001	-1223.3095703125	-237.3242797851563	743.5497436523439	-1232.595581054688	-297.9677429199219	682.2924194335939	-1204.27490234375	-267.6406860351563	551.5960083007814	-1189.337158203125	-255.796127319336	542.2958984375001	-1057.774780273438	-246.2040557861329	325.3116149902344	-1128.402221679688	-322.6345214843751	294.8456726074219	-1159.28271484375	-280.8765869140626	283.1076354980469	-1149.14990234375	-278.3769531250001	206.6571044921876	-1105.69287109375	-354.6717529296876	126.9366073608399	-1105.499877929688	-315.9955749511719	142.2743377685547	-1027.93408203125	-414.0530395507814	97.75147247314456	-1048.60986328125	-199.8456268310547	56.21854400634767	-1049.710327148438	-204.8658142089844	50.53018188476564	-1096.0595703125	-262.0092468261719	37.47127914428712	-1137.371826171875	-211.0627441406251	828.0269165039065	-880.1782226562502	-161.7062072753907	783.7623291015627	-887.8186645507815	-131.4962768554688	795.1488037109377	-896.4177246093752	-169.2695617675782	701.4019165039064	-900.9141845703127	-122.6466751098633	574.8903198242189	-915.9702148437502	-113.6646041870117	574.3206787109376	-1050.439208984375	-4.644808292388917	423.5281982421876	-940.4280395507815	-41.1865463256836	322.6384277343751	-923.2420043945315	2.13660740852356	337.4222717285157	-929.5503540039065	38.80829238891602	304.6670227050782	-961.868103027344	35.39507675170899	177.2172546386719	-947.622741699219	53.39642333984376	202.8853759765626	-1032.403198242188	-0.981427848339081	113.0172882080078	-1009.437744140625	209.1472778320313	186.2737884521485	-1002.475158691406	201.9201049804688	186.1041564941407	-962.4588012695315	169.2293701171875	144.8609924316407	-916.1958618164065	nan	nan	nan	
